# xmcd
#
# Track frame offsets:
#	150
#	17553
#	32827
#	49032
#	60630
#	80371
#	97210
#	113713
#	126716
#	142168
#	155966
#	173329
#	186435
#	201208
#
# Disc length: 2933 seconds
#
# Revision: 1
# Processed by: cddbd v1.5.2PL0 Copyright (c) Steve Scherf et al.
# Submitted via: audiograbber 1.83.01
#
DISCID=cc0b730e
DTITLE=Various Artist - CDX 492
DYEAR=2010
DGENRE=Country
TTITLE0=Emily West ft Keith Urban - Blue Sky
TTITLE1=Coldwater Jane - Bring On the Love
TTITLE2=Brandi Carlile - Dying Day
TTITLE3=Tyler Dickerson - Tell Your Sister I'm Single
TTITLE4=David Nail - Turning Home
TTITLE5=Martina McBride - Wrong Baby Wrong
TTITLE6=Emil - If You Let Me
TTITLE7=Ivy Raye - I Said Hello, He Said Goodbye
TTITLE8=Ben Wasson - Mystery Train
TTITLE9=Veronica Ballestrini - Out There Somewhere
TTITLE10=Jason Sturgeon - Simple Life
TTITLE11=K Wilder - Do Ya
TTITLE12=Scott Lindesy - You Only Call Me When You're Drunk
TTITLE13=Kacey Jones - Donald Trump's Hair
EXTD=
EXTT0=
EXTT1=
EXTT2=
EXTT3=
EXTT4=
EXTT5=
EXTT6=
EXTT7=
EXTT8=
EXTT9=
EXTT10=
EXTT11=
EXTT12=
EXTT13=
PLAYORDER=
